<?xml version="1.0" encoding="UTF-8" standalone="no"?>
<!DOCTYPE svg PUBLIC "-//W3C//DTD SVG 1.1//EN" "http://www.w3.org/Graphics/SVG/1.1/DTD/svg11.dtd">
<svg width="100%" height="100%" viewBox="0 0 300 300" version="1.1" xmlns="http://www.w3.org/2000/svg" xmlns:xlink="http://www.w3.org/1999/xlink" xml:space="preserve" xmlns:serif="http://www.serif.com/" style="fill-rule:evenodd;clip-rule:evenodd;stroke-linejoin:round;stroke-miterlimit:2;">
    <g transform="matrix(0.996678,0,0,0.996678,-0.996678,0)">
        <rect x="1" y="0" width="301" height="301" style="fill:rgb(8,91,135);"/>
    </g>
    <g transform="matrix(7.399502,0,0,7.399502,-853.374968,1113.589536)">
        <path d="M137.477,-144.443C139.902,-144.443 141.967,-143.98 143.671,-143.053C145.374,-142.126 146.688,-140.948 147.612,-139.518C148.535,-138.087 149.027,-136.607 149.089,-135.075C149.097,-134.908 149.102,-134.739 149.106,-134.569C149.11,-134.399 149.108,-134.222 149.099,-134.039L141.072,-134.039C141.041,-135.257 140.638,-136.186 139.862,-136.826C139.086,-137.467 138.115,-137.787 136.948,-137.787C135.982,-137.787 135.109,-137.536 134.33,-137.036C133.551,-136.535 132.884,-135.836 132.329,-134.94C131.775,-134.044 131.35,-133.001 131.056,-131.811C130.762,-130.621 130.615,-129.339 130.615,-127.965C130.615,-126.723 130.818,-125.711 131.225,-124.929C131.631,-124.147 132.162,-123.575 132.818,-123.214C133.473,-122.852 134.165,-122.672 134.894,-122.672C136.074,-122.672 137.088,-122.984 137.937,-123.609C138.785,-124.234 139.387,-125.156 139.743,-126.374L147.825,-126.374C147.554,-124.493 146.853,-122.765 145.723,-121.19C144.593,-119.614 143.078,-118.356 141.178,-117.415C139.278,-116.474 137.031,-116.004 134.435,-116.004C131.905,-116.004 129.718,-116.474 127.874,-117.414C126.03,-118.354 124.606,-119.68 123.601,-121.392C122.595,-123.104 122.093,-125.12 122.093,-127.441C122.093,-130.678 122.728,-133.578 123.999,-136.14C125.27,-138.702 127.058,-140.727 129.363,-142.213C131.667,-143.7 134.372,-144.443 137.477,-144.443Z" style="fill:rgb(251,252,253);fill-rule:nonzero;"/>
    </g>
</svg>
