<?xml version="1.0" encoding="UTF-8"?>
<svg width="512px" height="512px" viewBox="0 0 512 512" version="1.1" xmlns="http://www.w3.org/2000/svg" xmlns:xlink="http://www.w3.org/1999/xlink">
    <title>512</title>
    <g id="512" stroke="none" stroke-width="1" fill="none" fill-rule="evenodd">
        <rect fill="#EFEEEE" x="0" y="0" width="512" height="512"></rect>
        <rect id="Rectangle" fill="#0077CF" x="0" y="0" width="512" height="64"></rect>
        <path d="M112.675737,451 C152.317049,451 174.723007,429.370787 174.723007,429.370787 L164.956308,401.685393 C164.956308,401.685393 144.273884,420.142322 116.410064,420.142322 C90.2697789,420.142322 77.0560084,404.280899 77.0560084,383.228464 C77.0560084,354.966292 101.185502,328.146067 130.772858,328.146067 C143.986628,328.146067 156.913143,333.337079 155.189608,343.142322 L153.466072,352.370787 L184.776963,352.370787 L188.51129,333.913858 C193.681895,305.651685 156.625887,297 133.932673,297 C79.3540555,297 40,340.546816 40,385.82397 C40,423.314607 66.7147968,451 112.675737,451 Z M442.426606,448 C448.104983,448 452.384582,447.650579 454.746157,447.396454 L456.288534,447.212343 C456.638013,447.165667 456.818807,447.137143 456.818807,447.137143 L462,419.813333 L461.348784,419.927375 C460.308182,420.095083 458.134666,420.388571 455.667431,420.388571 C448.183486,420.388571 443.577982,417.8 443.577982,408.59619 C443.577982,396.80381 455.379587,354.23619 455.379587,336.979048 C455.379587,310.805714 438.972477,297 415.081422,297 C391.190367,297 371.329128,311.95619 360.103211,330.36381 L359.527523,330.36381 C357.512615,308.504762 344.271789,297 323.834862,297 C295.626147,297 272.886468,322.022857 268.856651,329.788571 L268.280963,329.788571 C270.008028,325.186667 271.735092,316.558095 271.735092,313.106667 C271.735092,305.340952 267.129587,300.451429 255.327982,300.451429 L216.756881,300.451429 L211.575688,327.775238 L227.982798,327.775238 C232.300459,327.775238 233.739679,330.07619 233.163991,333.815238 L211,447.137143 L247.556193,447.137143 L259.645642,384.72381 C264.826835,357.975238 282.097477,330.36381 307.139908,330.36381 C320.09289,330.36381 323.834862,336.979048 323.834862,346.182857 C323.834862,350.209524 322.97133,354.811429 322.107798,359.700952 L305.125,447.137143 L341.681193,447.137143 L354.058486,382.710476 C359.239679,355.961905 376.510321,330.36381 400.113532,330.36381 C413.642202,330.36381 417.384174,336.979048 417.384174,347.333333 C417.384174,359.700952 405.870413,403.131429 405.870413,417.8 C405.870413,445.411429 426.883028,448 442.426606,448 Z" id="cm" fill="#0077CF" fill-rule="nonzero"></path>
    </g>
</svg>
